<?xml version="1.0" encoding="utf-8"?>
<!-- Generator: Adobe Illustrator 18.1.1, SVG Export Plug-In . SVG Version: 6.00 Build 0)  -->
<svg version="1.1" id="Calque_1" xmlns:sketch="http://www.bohemiancoding.com/sketch/ns"
	 xmlns="http://www.w3.org/2000/svg" xmlns:xlink="http://www.w3.org/1999/xlink" x="0px" y="0px" viewBox="-35.5 26 150 150"
	 enable-background="new -35.5 26 150 150" xml:space="preserve">
<g>
	<defs>
		<rect id="SVGID_1_" x="-745.5" y="-514" width="1400" height="1060"/>
	</defs>
	<clipPath id="SVGID_2_">
		<use xlink:href="#SVGID_1_"  overflow="visible"/>
	</clipPath>
</g>
<g>
	<path fill="#009438" d="M-7.6,101c0-8.6,0-17.2,0-25.8c0-1,0.4-1.7,1.3-2.2c14.9-8.6,29.7-17.1,44.5-25.7c0.8-0.5,1.7-0.6,2.5-0.1
		c14.9,8.6,29.8,17.2,44.7,25.8c0.8,0.5,1.2,1.2,1.2,2.2c0,17.2,0,34.3,0,51.5c0,1-0.4,1.7-1.2,2.2c-12.8,7.4-25.6,14.8-38.4,22.2
		c-2,1.2-4.1,2.4-6.1,3.5c-0.9,0.5-1.8,0.5-2.7,0c-11.2-6.4-22.3-12.9-33.5-19.3c-3.7-2.1-7.4-4.3-11.1-6.4
		c-0.8-0.5-1.2-1.1-1.2-2.1C-7.6,118.2-7.6,109.6-7.6,101z"/>
	<path fill="#FEFEFE" d="M23.9,91.4c0,0.1,0,0.3,0,0.4c0,9.9,0,19.8,0,29.7c0,3.4-2.7,6.4-6.3,6.3c-2.2-0.1-3.9-1-5.1-2.9
		c-0.6-0.9-0.8-1.9-0.8-3c0-13.9,0-27.9,0-41.8c0-2.8,1.7-4.8,3.9-5.7c2.2-0.9,4.4-0.7,6.6,0c2.1,0.6,3.7,1.9,5.1,3.5
		c4.3,5.2,8.7,10.4,13,15.6c4.5,5.4,9.1,10.8,13.6,16.3c0.1,0.1,0.2,0.3,0.4,0.5c0-0.2,0-0.4,0-0.5c0-10,0-19.9,0-29.9
		c0-3.2,2.2-5.7,5.3-6c3.9-0.5,6.5,2.3,6.9,5.2c0,0.3,0,0.6,0,0.8c0,11.1,0,22.2,0,33.3c0,2.8,0,5.7,0,8.5c0,2.4-1.1,4.1-3.1,5.2
		c-1.5,0.8-3.1,1-4.8,0.9c-2.5-0.2-4.7-1.1-6.6-2.8c-1-0.9-1.7-2-2.6-3c-4.9-5.9-9.8-11.7-14.7-17.6c-3.5-4.2-7.1-8.5-10.6-12.7
		C24.1,91.6,24,91.5,23.9,91.4z"/>
</g>
</svg>
